<svg id="visual" viewBox="0 0 900 600" width="900" height="600" xmlns="http://www.w3.org/2000/svg" xmlns:xlink="http://www.w3.org/1999/xlink" version="1.1"><rect x="0" y="0" width="900" height="600" fill="#ffffff"></rect><path d="M0 390L21.5 410.7C43 431.3 86 472.7 128.8 472.8C171.7 473 214.3 432 257.2 429.5C300 427 343 463 385.8 464.3C428.7 465.7 471.3 432.3 514.2 433.5C557 434.7 600 470.3 642.8 481.8C685.7 493.3 728.3 480.7 771.2 465.5C814 450.3 857 432.7 878.5 423.8L900 415L900 601L878.5 601C857 601 814 601 771.2 601C728.3 601 685.7 601 642.8 601C600 601 557 601 514.2 601C471.3 601 428.7 601 385.8 601C343 601 300 601 257.2 601C214.3 601 171.7 601 128.8 601C86 601 43 601 21.5 601L0 601Z" fill="#001122" stroke-linecap="round" stroke-linejoin="miter"></path></svg>