<svg id="visual" viewBox="0 0 960 540" width="960" height="540" xmlns="http://www.w3.org/2000/svg" xmlns:xlink="http://www.w3.org/1999/xlink" version="1.1"><rect x="0" y="0" width="960" height="540" fill="#ffffff"></rect><path d="M0 351L22.8 369.7C45.7 388.3 91.3 425.7 137 425.8C182.7 426 228.3 389 274 386.7C319.7 384.3 365.3 416.7 411.2 417.8C457 419 503 389 548.8 390.2C594.7 391.3 640.3 423.7 686 434C731.7 444.3 777.3 432.7 823 418.8C868.7 405 914.3 389 937.2 381L960 373L960 541L937.2 541C914.3 541 868.7 541 823 541C777.3 541 731.7 541 686 541C640.3 541 594.7 541 548.8 541C503 541 457 541 411.2 541C365.3 541 319.7 541 274 541C228.3 541 182.7 541 137 541C91.3 541 45.7 541 22.8 541L0 541Z" fill="#060387" stroke-linecap="round" stroke-linejoin="miter"></path></svg>